# xmcd
#
# Track frame offsets: 
#        150
#        14493
#        27666
#        41653
#        57328
#        78048
#        98614
#        119730
#        140018
#        153861
#        166926
#
# Disc length: 2416 seconds
#
# Revision: 0
# Processed by: cddbd v1.5.2PL0 Copyright (c) Steve Scherf et al.
# Submitted via: ExactAudioCopyFreeDBPlugin 1.0
#
DISCID=8b096e0b
DTITLE=Ralph de Jongh - Ocean of Love
DYEAR=2016
DGENRE=Blues
TTITLE0=Perfect day
TTITLE1=Sugarbody
TTITLE2=Evening sun
TTITLE3=Every night
TTITLE4=Comeback
TTITLE5=Life's a shark
TTITLE6=Thought you were the summer
TTITLE7=Burning flame
TTITLE8=Love striking me down
TTITLE9=Right here by your side
TTITLE10=Dreams
EXTD=
EXTT0=
EXTT1=
EXTT2=
EXTT3=
EXTT4=
EXTT5=
EXTT6=
EXTT7=
EXTT8=
EXTT9=
EXTT10=
PLAYORDER=
